<svg width="19" height="19" viewBox="0 0 19 19" fill="none" xmlns="http://www.w3.org/2000/svg">
<g clip-path="url(#clip0_346_455)">
<path d="M17.5186 3.01055C16.5181 1.98737 15.1799 1.42387 13.7503 1.42387C12.3427 1.42387 11.0193 1.97208 10.0237 2.96769L9.50991 3.48184L8.99561 2.96754C8.00011 1.97204 6.67694 1.42383 5.26979 1.42383C3.8622 1.42383 2.5388 1.97204 1.54338 2.96754C0.548105 3.96278 0 5.28606 0 6.69366C0 8.10125 0.548105 9.42454 1.54338 10.4198L8.12963 17.006C8.51011 17.3864 9.00975 17.5766 9.5095 17.5766C10.0091 17.5766 10.5089 17.3864 10.8893 17.006L17.4331 10.4628C19.4884 8.40741 19.5268 5.06441 17.5186 3.01055ZM16.7431 9.77285L10.1993 16.3162C9.81892 16.6965 9.19993 16.6965 8.81956 16.3161L2.23328 9.7298C1.42229 8.91885 0.97568 7.8406 0.97568 6.69362C0.97568 5.54664 1.42229 4.46839 2.23328 3.6574C3.04442 2.84623 4.12281 2.39951 5.26979 2.39951C6.41632 2.39951 7.4945 2.84623 8.30567 3.6574L8.82023 4.17196L8.03229 4.9605C7.84184 5.15109 7.84199 5.45996 8.03255 5.6504C8.12781 5.74559 8.25257 5.79316 8.37737 5.79316C8.50231 5.79316 8.62719 5.74544 8.72245 5.65014L10.7137 3.65737C11.5248 2.84619 12.6032 2.39947 13.7502 2.39947C14.915 2.39947 16.0055 2.85874 16.8209 3.69262C18.4572 5.36614 18.4223 8.09368 16.7431 9.77285Z" fill="white"/>
<path d="M17.3037 6.47199C17.2501 5.60437 16.8825 4.78849 16.2687 4.17458C15.8341 3.73996 15.2947 3.42416 14.7091 3.26114C14.4495 3.18892 14.1806 3.34081 14.1084 3.60039C14.0362 3.85993 14.1881 4.1289 14.4477 4.20112C14.8717 4.31909 15.2628 4.54846 15.5788 4.86445C16.0243 5.30991 16.291 5.90214 16.3299 6.53207C16.3459 6.79076 16.5607 6.98985 16.8164 6.98985C16.8265 6.98985 16.8367 6.98955 16.847 6.98889C17.1159 6.97237 17.3203 6.74092 17.3037 6.47199Z" fill="white"/>
</g>
<defs>
<clipPath id="clip0_346_455">
<rect width="19" height="19" fill="white"/>
</clipPath>
</defs>
</svg>
