<svg width="34" height="33" viewBox="0 0 34 33" fill="none" xmlns="http://www.w3.org/2000/svg">
<g clip-path="url(#clip0_149_49)" filter="url(#filter0_d_149_49)">
<path d="M27.9728 4.11955C26.6038 2.71941 24.7725 1.94829 22.8162 1.94829C20.89 1.94829 19.079 2.69848 17.7167 4.06089L17.0136 4.76447L16.3098 4.06069C14.9475 2.69843 13.1369 1.94824 11.2113 1.94824C9.28511 1.94824 7.47415 2.69843 6.11199 4.06069C4.75004 5.42259 4 7.2334 4 9.15959C4 11.0858 4.75004 12.8966 6.11199 14.2585L15.1248 23.2712C15.6454 23.7917 16.3291 24.0521 17.013 24.0521C17.6967 24.052 18.3806 23.7917 18.9011 23.2712L27.8558 14.3173C30.6683 11.5047 30.7208 6.93009 27.9728 4.11955ZM26.9116 13.3732L17.957 22.3272C17.4364 22.8477 16.5894 22.8477 16.0689 22.3272L7.05607 13.3143C5.94629 12.2046 5.33514 10.7291 5.33514 9.15954C5.33514 7.58999 5.94629 6.11449 7.05607 5.00472C8.16604 3.89469 9.64175 3.28338 11.2113 3.28338C12.7802 3.28338 14.2556 3.89469 15.3657 5.00472L16.0698 5.70885L14.9916 6.7879C14.7309 7.04871 14.7311 7.47136 14.9919 7.73197C15.1223 7.86223 15.293 7.92733 15.4638 7.92733C15.6347 7.92733 15.8056 7.86202 15.936 7.73162L18.6608 5.00466C19.7708 3.89464 21.2465 3.28333 22.816 3.28333C24.41 3.28333 25.9023 3.9118 27.018 5.05291C29.2573 7.34299 29.2095 11.0754 26.9116 13.3732Z" fill="white"/>
<path d="M27.6784 8.85638C27.605 7.66911 27.102 6.55264 26.262 5.71256C25.6673 5.11781 24.9293 4.68567 24.1279 4.46258C23.7727 4.36376 23.4047 4.57161 23.3058 4.92683C23.207 5.28199 23.4149 5.65005 23.7701 5.74887C24.3504 5.91031 24.8856 6.22418 25.318 6.65659C25.9276 7.26617 26.2926 8.07658 26.3459 8.9386C26.3678 9.29259 26.6616 9.56503 27.0116 9.56503C27.0254 9.56503 27.0393 9.56463 27.0533 9.56371C27.4213 9.54111 27.7011 9.22439 27.6784 8.85638Z" fill="white"/>
</g>
<defs>
<filter id="filter0_d_149_49" x="0" y="0" width="34" height="34" filterUnits="userSpaceOnUse" color-interpolation-filters="sRGB">
<feFlood flood-opacity="0" result="BackgroundImageFix"/>
<feColorMatrix in="SourceAlpha" type="matrix" values="0 0 0 0 0 0 0 0 0 0 0 0 0 0 0 0 0 0 127 0" result="hardAlpha"/>
<feOffset dy="4"/>
<feGaussianBlur stdDeviation="2"/>
<feComposite in2="hardAlpha" operator="out"/>
<feColorMatrix type="matrix" values="0 0 0 0 0 0 0 0 0 0 0 0 0 0 0 0 0 0 0.25 0"/>
<feBlend mode="normal" in2="BackgroundImageFix" result="effect1_dropShadow_149_49"/>
<feBlend mode="normal" in="SourceGraphic" in2="effect1_dropShadow_149_49" result="shape"/>
</filter>
<clipPath id="clip0_149_49">
<rect width="26" height="26" fill="white" transform="translate(4)"/>
</clipPath>
</defs>
</svg>
