<svg width="26" height="26" viewBox="0 0 26 26" fill="none" xmlns="http://www.w3.org/2000/svg">
<g clip-path="url(#clip0_149_71)">
<path d="M6.98457 16.8829C7.00524 16.8807 9.99814 16.969 10.4431 13.7617C9.94868 13.4167 9.49297 12.9688 9.09149 12.4254C8.31047 11.3681 7.80723 10.0418 7.62797 8.60717C7.56638 8.55146 7.51539 8.48214 7.48106 8.40044C7.15672 7.6278 6.99224 6.80281 6.99224 5.94826C6.99224 2.6684 9.46636 -1.17401e-06 12.5076 -9.08136e-07C13.303 -8.38601e-07 14.0747 0.183218 14.8035 0.545034C15.0815 0.566261 15.354 0.615163 15.6153 0.690624C16.8643 1.05153 17.8808 1.97762 18.4774 3.29845C19.0566 4.58088 19.1708 6.09055 18.7987 7.54945C18.7201 7.85764 18.6202 8.1605 18.5017 8.44985C18.4696 8.5281 18.4217 8.59488 18.3643 8.64982C18.0739 10.889 17.0085 12.7443 15.5557 13.7573C16.0021 16.9699 18.9939 16.8808 19.0145 16.883C21.1668 16.956 22.8955 18.7284 22.8955 20.8981L22.8955 25.4146C22.8955 25.738 22.6334 26.0001 22.3101 26.0001L17.1695 26.0001L8.82981 26.0001L3.68908 26C3.3658 26 3.10362 25.738 3.10362 25.4146L3.10362 20.8981C3.10367 18.7283 4.83226 16.9559 6.98457 16.8829ZM15.2902 1.81548C15.0766 1.75373 14.8509 1.71712 14.6196 1.70671C14.5337 1.70285 14.4498 1.68015 14.3737 1.64013C13.781 1.32874 13.1531 1.17086 12.5076 1.17086C10.112 1.17086 8.16306 3.31398 8.16305 5.94826C8.16305 6.02733 8.16529 6.10599 8.16874 6.18434C8.63339 5.71248 9.27897 5.41922 9.99189 5.41922L13.9818 5.41922C14.2192 5.41922 14.4445 5.34468 14.6335 5.2036C14.7948 5.0832 14.9196 4.92136 14.994 4.73561C15.1094 4.44828 15.3939 4.26857 15.7036 4.28802C16.0143 4.30782 16.2759 4.52364 16.3544 4.82523C16.5856 5.7137 17.0466 6.53209 17.6792 7.19575C18.2677 4.77354 17.2055 2.36884 15.2902 1.81548ZM15.7995 11.9407C16.5613 11.0101 17.0602 9.7534 17.2183 8.37759C16.4796 7.71921 15.8956 6.8999 15.5154 5.99112C15.4577 6.04434 15.3971 6.09466 15.3339 6.14194C14.941 6.4351 14.4735 6.59014 13.9818 6.59014L9.99184 6.59014C9.42731 6.59014 8.94072 6.92875 8.72358 7.41335C8.72363 7.41751 8.72424 7.42148 8.72424 7.42564C8.72424 10.7304 10.6417 13.419 12.9987 13.419C14.0245 13.419 15.0192 12.894 15.7995 11.9407ZM14.4544 14.3321C13.9903 14.5001 13.5021 14.5899 12.9987 14.5899C12.4993 14.5899 12.0113 14.503 11.5442 14.3352C11.3298 15.452 10.7089 16.4253 9.84163 17.0954L12.9157 21.4731C12.9357 21.5017 12.9636 21.5162 12.9985 21.5162C13.0334 21.5162 13.0613 21.5016 13.0813 21.4732L16.1561 17.0944C15.2888 16.4236 14.6681 15.4495 14.4544 14.3321ZM4.27453 24.8291L8.82981 24.8291L17.1695 24.8291L21.7247 24.8291L21.7247 20.898C21.7247 19.3278 20.4472 18.0502 18.8769 18.0502C18.8556 18.0502 17.9136 18.0273 17.1692 17.6891L14.0396 22.146C13.8018 22.4848 13.4126 22.687 12.9986 22.687C12.9986 22.687 12.9986 22.687 12.9985 22.687C12.5846 22.687 12.1954 22.4848 11.9575 22.146L8.82849 17.6898C7.97958 18.0503 7.14357 18.0503 7.12224 18.0503C5.55199 18.0503 4.27453 19.3278 4.27453 20.8981L4.27453 24.8291Z" fill="white"/>
</g>
<defs>
<clipPath id="clip0_149_71">
<rect width="26" height="26" fill="white" transform="matrix(-1 -8.74228e-08 -8.74228e-08 1 26 0)"/>
</clipPath>
</defs>
</svg>
