<svg width="19" height="19" viewBox="0 0 19 19" fill="none" xmlns="http://www.w3.org/2000/svg">
<g clip-path="url(#clip0_346_451)">
<path d="M5.10441 12.3375C5.11951 12.3359 7.30663 12.4004 7.63182 10.0566C7.27048 9.80452 6.93746 9.47721 6.64407 9.08007C6.07333 8.30745 5.70558 7.33823 5.57458 6.28985C5.52957 6.24914 5.49231 6.19849 5.46722 6.13878C5.23021 5.57416 5.11001 4.97128 5.11001 4.34681C5.11001 1.94999 6.91802 -8.57933e-07 9.1405 -6.63638e-07C9.72174 -6.12824e-07 10.2857 0.13389 10.8182 0.398294C11.0214 0.413806 11.2205 0.449543 11.4114 0.504687C12.3242 0.768423 13.067 1.44519 13.503 2.4104C13.9263 3.34756 14.0097 4.45079 13.7378 5.5169C13.6804 5.74212 13.6074 5.96344 13.5207 6.17489C13.4973 6.23207 13.4623 6.28087 13.4204 6.32103C13.2082 7.95736 12.4296 9.31315 11.3679 10.0534C11.6941 12.4011 13.8805 12.3359 13.8955 12.3376C15.4683 12.3909 16.7316 13.6862 16.7316 15.2717L16.7316 18.5722C16.7316 18.8085 16.5401 19 16.3038 19L12.5472 19L6.45285 19L2.69616 19C2.45992 19 2.26832 18.8085 2.26832 18.5722L2.26832 15.2717C2.26836 13.6861 3.53156 12.3908 5.10441 12.3375ZM11.1739 1.3267C11.0178 1.28157 10.8529 1.25482 10.6838 1.24721C10.6211 1.24439 10.5597 1.2278 10.5041 1.19856C10.071 0.971003 9.61219 0.85563 9.14046 0.85563C7.38986 0.85563 5.9656 2.42176 5.9656 4.34681C5.9656 4.40458 5.96724 4.46207 5.96976 4.51933C6.30931 4.17451 6.78108 3.9602 7.30206 3.9602L10.2178 3.9602C10.3913 3.9602 10.5559 3.90572 10.694 3.80263C10.8119 3.71465 10.903 3.59638 10.9575 3.46063C11.0418 3.25067 11.2497 3.11934 11.476 3.13355C11.7031 3.14803 11.8942 3.30574 11.9516 3.52613C12.1205 4.1754 12.4574 4.77345 12.9197 5.25844C13.3498 3.48836 12.5736 1.73108 11.1739 1.3267ZM11.5461 8.7259C12.1028 8.04583 12.4674 7.12749 12.5829 6.12208C12.0431 5.64096 11.6163 5.04224 11.3385 4.37813C11.2963 4.41702 11.2521 4.45379 11.2058 4.48834C10.9187 4.70257 10.5771 4.81587 10.2177 4.81587L7.30202 4.81587C6.88948 4.81587 6.5339 5.06331 6.37522 5.41745C6.37526 5.42049 6.3757 5.42339 6.3757 5.42643C6.3757 7.84143 7.77695 9.80619 9.49934 9.80619C10.249 9.80623 10.9759 9.42255 11.5461 8.7259ZM10.5631 10.4735C10.224 10.5962 9.86725 10.6619 9.49934 10.6619C9.13437 10.6619 8.77779 10.5983 8.43642 10.4758C8.27978 11.2918 7.82605 12.0031 7.19225 12.4928L9.43867 15.6919C9.45333 15.7128 9.4737 15.7234 9.49923 15.7234C9.52473 15.7234 9.5451 15.7127 9.55972 15.6919L11.8067 12.4921C11.1729 12.0018 10.7193 11.29 10.5631 10.4735ZM3.12399 18.1444L6.45285 18.1444L12.5472 18.1444L15.876 18.1444L15.876 15.2716C15.876 14.1241 14.9425 13.1906 13.795 13.1906C13.7794 13.1906 13.091 13.1738 12.547 12.9266L10.26 16.1836C10.0862 16.4312 9.80179 16.579 9.49927 16.579C9.49927 16.579 9.49927 16.579 9.49923 16.579C9.19675 16.579 8.91231 16.4312 8.73849 16.1836L6.45188 12.9272C5.83153 13.1906 5.2206 13.1906 5.20501 13.1906C4.05751 13.1906 3.12399 14.1242 3.12399 15.2717L3.12399 18.1444Z" fill="white"/>
</g>
<defs>
<clipPath id="clip0_346_451">
<rect width="19" height="19" fill="white" transform="matrix(-1 -8.74228e-08 -8.74228e-08 1 19 0)"/>
</clipPath>
</defs>
</svg>
