<svg width="26" height="26" viewBox="0 0 26 26" fill="none" xmlns="http://www.w3.org/2000/svg">
<g clip-path="url(#clip0_149_91)">
<path d="M23.24 2.7624C26.9174 6.43982 26.9174 12.4233 23.24 16.1007C21.4587 17.8821 19.0901 18.8631 16.5709 18.8631C14.2759 18.8631 12.1063 18.0486 10.3914 16.557L9.26817 17.6802L10.4129 18.8249C10.5383 18.9503 10.6088 19.1205 10.6088 19.2979C10.6088 19.4753 10.5383 19.6454 10.4129 19.7709L5.04977 25.1339C4.49138 25.6924 3.74891 26 2.9591 26C2.16936 26 1.42683 25.6924 0.868441 25.134C0.309948 24.5755 0.00241842 23.8331 0.00241839 23.0434C0.00241835 22.2537 0.309999 21.5111 0.868391 20.9527L6.2314 15.5896C6.35683 15.4642 6.52699 15.3937 6.70437 15.3937C6.88175 15.3937 7.05192 15.4642 7.17735 15.5896L8.32206 16.7343L9.44565 15.6107C7.91129 13.8439 7.14368 11.6379 7.14368 9.43155C7.14368 7.01634 8.06303 4.60109 9.90166 2.7624C11.6831 0.981093 14.0515 -1.38515e-06 16.5708 -1.49527e-06C19.0902 -1.6054e-06 21.4587 0.980992 23.24 2.7624ZM1.81439 21.8987C1.50864 22.2044 1.34025 22.6109 1.34025 23.0434C1.34025 23.4758 1.50869 23.8823 1.81445 24.1881C2.12015 24.4938 2.5267 24.6622 2.95905 24.6622C3.39141 24.6622 3.79801 24.4938 4.10377 24.188L7.09651 21.1953L4.80719 18.9059L1.81439 21.8987ZM5.75319 17.9598L8.04261 20.2492L8.99395 19.2979L6.70448 17.0085L5.75319 17.9598ZM10.8477 3.7084C7.69187 6.86415 7.69187 11.9989 10.8477 15.1546C12.3764 16.6834 14.4089 17.5253 16.5709 17.5253C18.7328 17.5253 20.7653 16.6834 22.294 15.1546C23.8718 13.5768 24.6608 11.5041 24.6608 9.4315C24.6608 7.35891 23.8719 5.28622 22.294 3.70835C20.7653 2.17963 18.7328 1.33773 16.5709 1.33773C14.409 1.33773 12.3764 2.17968 10.8477 3.7084Z" fill="white"/>
<path d="M21.1903 4.81222C23.7373 7.35931 23.7374 11.5036 21.1903 14.0507C18.6432 16.5977 14.4989 16.5977 11.9518 14.0507C10.6784 12.7771 10.0416 11.1043 10.0416 9.43144C10.0416 7.75855 10.6784 6.08572 11.9518 4.81217L11.9519 4.81217C14.4989 2.26519 18.6432 2.26519 21.1903 4.81222ZM12.8978 5.75823C10.8723 7.78369 10.8723 11.0792 12.8977 13.1047C14.9232 15.1302 18.2188 15.1302 20.2443 13.1048C21.2571 12.0919 21.7633 10.7619 21.7633 9.43144C21.7633 8.10133 21.2568 6.77081 20.2443 5.75823C18.2188 3.73277 14.9232 3.73277 12.8978 5.75823Z" fill="white"/>
<path d="M19.0618 6.94061C20.4351 8.31414 20.4351 10.5488 19.0618 11.9223C18.8005 12.1835 18.377 12.1835 18.1157 11.9223C17.8545 11.661 17.8545 11.2375 18.1157 10.9762C18.9675 10.1245 18.9675 8.73837 18.1157 7.88656C17.9851 7.7559 17.9198 7.58477 17.9198 7.41359C17.9198 7.2424 17.9851 7.07117 18.1157 6.94061C18.3769 6.67939 18.8005 6.67939 19.0618 6.94061Z" fill="white"/>
</g>
<defs>
<clipPath id="clip0_149_91">
<rect width="26" height="26" fill="white" transform="matrix(-4.37114e-08 -1 -1 4.37114e-08 26 26)"/>
</clipPath>
</defs>
</svg>
