<svg width="43" height="43" viewBox="0 0 43 43" fill="none" xmlns="http://www.w3.org/2000/svg">
<g clip-path="url(#clip0_151_295)">
<path d="M2.88848 32.2454C5.75865 37.2166 10.393 40.7727 15.9378 42.2584C21.4825 43.7443 27.2741 42.9817 32.2454 40.1115C37.2168 37.2412 40.7727 32.6069 42.2584 27.0622C43.7443 21.5174 42.9816 15.7258 40.1115 10.7546C37.2413 5.7834 32.607 2.22725 27.0622 0.741568C25.2107 0.24539 23.3319 -1.31635e-05 21.465 -1.33267e-05C17.7412 7.02711e-05 14.0659 0.97664 10.7545 2.88863C5.78342 5.75879 2.22727 10.3931 0.741591 15.9379C-0.744261 21.4826 0.0183997 27.2741 2.88848 32.2454ZM2.90327 16.5169C4.23425 11.5496 7.41994 7.398 11.8736 4.82657C16.3273 2.2553 21.5157 1.57226 26.4831 2.90324C31.4504 4.23431 35.602 7.41993 38.1734 11.8736C40.7447 16.3271 41.4277 21.5156 40.0968 26.483C38.7658 31.4504 35.5801 35.602 31.1264 38.1734C26.6727 40.7447 21.4841 41.4276 16.5171 40.0967C11.5498 38.7657 7.39802 35.58 4.82676 31.1264C2.25541 26.6728 1.5722 21.4844 2.90327 16.5169Z" fill="#B69E54"/>
<path d="M14.5791 23.3721L26.2505 30.1106C26.9244 30.4996 27.7287 30.4996 28.4025 30.1107C29.0762 29.7218 29.4785 29.0251 29.4785 28.247L29.4785 14.77C29.4785 13.9919 29.0762 13.2954 28.4025 12.9063C28.0657 12.7117 27.6962 12.6145 27.3267 12.6145C26.9571 12.6145 26.5874 12.7118 26.2507 12.9063L14.5791 19.6448C13.9055 20.0337 13.5032 20.7305 13.5032 21.5084C13.5032 22.2864 13.9055 22.9831 14.5791 23.3721ZM27.2406 14.919L27.2406 28.098L15.8272 21.5086L27.2406 14.919Z" fill="#B69E54"/>
</g>
<defs>
<clipPath id="clip0_151_295">
<rect width="43" height="43" fill="white" transform="translate(43 43) rotate(-180)"/>
</clipPath>
</defs>
</svg>
