<svg width="43" height="43" viewBox="0 0 43 43" fill="none" xmlns="http://www.w3.org/2000/svg">
<g clip-path="url(#clip0_151_270)">
<path d="M40.1115 10.7546C37.2414 5.78343 32.607 2.22728 27.0622 0.741593C21.5175 -0.744258 15.7259 0.0183203 10.7546 2.88849C5.78324 5.75882 2.22726 10.3931 0.741572 15.9378C-0.74428 21.4826 0.0183825 27.2742 2.88855 32.2454C5.75871 37.2166 10.393 40.7727 15.9378 42.2584C17.7893 42.7546 19.6681 43 21.535 43C25.2588 42.9999 28.9341 42.0234 32.2455 40.1114C37.2166 37.2412 40.7727 32.6069 42.2584 27.0621C43.7443 21.5174 42.9816 15.7259 40.1115 10.7546ZM40.0967 26.4831C38.7658 31.4504 35.5801 35.602 31.1264 38.1734C26.6727 40.7447 21.4843 41.4277 16.5169 40.0968C11.5496 38.7657 7.39801 35.5801 4.82657 31.1264C2.25531 26.6729 1.57226 21.4844 2.90325 16.517C4.23423 11.5496 7.41993 7.39803 11.8736 4.82659C16.3273 2.25533 21.5159 1.57237 26.4829 2.90327C31.4502 4.23425 35.602 7.41995 38.1732 11.8736C40.7446 16.3272 41.4278 21.5156 40.0967 26.4831Z" fill="#B69E54"/>
<path d="M28.4209 19.6279L16.7495 12.8894C16.0756 12.5004 15.2713 12.5004 14.5975 12.8893C13.9238 13.2782 13.5215 13.9749 13.5215 14.753V28.23C13.5215 29.0081 13.9238 29.7046 14.5975 30.0937C14.9343 30.2883 15.3038 30.3855 15.6733 30.3855C16.0429 30.3855 16.4126 30.2882 16.7493 30.0937L28.4209 23.3552C29.0945 22.9663 29.4968 22.2695 29.4968 21.4915C29.4968 20.7136 29.0945 20.0169 28.4209 19.6279ZM15.7594 28.081V14.902L27.1728 21.4914L15.7594 28.081Z" fill="#B69E54"/>
</g>
<defs>
<clipPath id="clip0_151_270">
<rect width="43" height="43" fill="white"/>
</clipPath>
</defs>
</svg>
