<svg width="26" height="26" viewBox="0 0 26 26" fill="none" xmlns="http://www.w3.org/2000/svg">
<g clip-path="url(#clip0_149_116)">
<path d="M10.9019 20.4561C9.64102 20.4561 8.61523 21.4818 8.61523 22.7427C8.61523 24.0035 9.64102 25.0293 10.9019 25.0293C12.1627 25.0293 13.1885 24.0035 13.1885 22.7427C13.1884 21.4818 12.1627 20.4561 10.9019 20.4561ZM10.9019 23.7525C10.345 23.7525 9.89198 23.2994 9.89198 22.7426C9.89198 22.1857 10.345 21.7327 10.9019 21.7327C11.4587 21.7327 11.9118 22.1858 11.9118 22.7426C11.9118 23.2995 11.4587 23.7525 10.9019 23.7525Z" fill="white"/>
<path d="M18.9224 20.4561C17.6615 20.4561 16.6357 21.4818 16.6357 22.7427C16.6357 24.0035 17.6615 25.0293 18.9224 25.0293C20.1832 25.0293 21.209 24.0035 21.209 22.7427C21.209 21.4818 20.1832 20.4561 18.9224 20.4561ZM18.9224 23.7525C18.3655 23.7525 17.9125 23.2994 17.9125 22.7426C17.9125 22.1857 18.3656 21.7327 18.9224 21.7327C19.4792 21.7327 19.9323 22.1858 19.9323 22.7426C19.9323 23.2995 19.4792 23.7525 18.9224 23.7525Z" fill="white"/>
<path d="M19.4858 8.41748H10.3376C9.98502 8.41748 9.69922 8.70328 9.69922 9.05585C9.69922 9.40843 9.98507 9.69423 10.3376 9.69423H19.4858C19.8384 9.69423 20.1242 9.40843 20.1242 9.05585C20.1242 8.70323 19.8384 8.41748 19.4858 8.41748Z" fill="white"/>
<path d="M18.988 11.7324H10.8356C10.4831 11.7324 10.1973 12.0182 10.1973 12.3708C10.1973 12.7234 10.4831 13.0092 10.8356 13.0092H18.9879C19.3405 13.0092 19.6263 12.7234 19.6263 12.3708C19.6263 12.0183 19.3405 11.7324 18.988 11.7324Z" fill="white"/>
<path d="M25.7127 5.57302C25.4692 5.27422 25.1085 5.10288 24.723 5.10288H4.83836L4.43678 3.15344C4.35294 2.74678 4.07558 2.40533 3.69467 2.23993L0.892707 1.02372C0.56923 0.883208 0.193296 1.03164 0.0529877 1.35502C-0.0874733 1.67849 0.0609604 2.05448 0.384285 2.19479L3.18629 3.41105L6.27512 18.4048C6.39679 18.9953 6.92268 19.4239 7.52561 19.4239H22.8192C23.1718 19.4239 23.4576 19.1381 23.4576 18.7855C23.4576 18.4329 23.1718 18.1471 22.8192 18.1471H7.52566L7.14993 16.3233H22.9374C23.5403 16.3233 24.0662 15.8947 24.1879 15.3042L25.9735 6.63709C26.0512 6.25968 25.9562 5.87177 25.7127 5.57302ZM22.9374 15.0466H6.88693L5.10141 6.37958L24.7229 6.37963L22.9374 15.0466Z" fill="white"/>
</g>
<defs>
<clipPath id="clip0_149_116">
<rect width="26" height="26" fill="white"/>
</clipPath>
</defs>
</svg>
