<svg width="11" height="10" viewBox="0 0 11 10" fill="none" xmlns="http://www.w3.org/2000/svg">
<g clip-path="url(#clip0_356_9)">
<path d="M5.80186 7.58656L10.8756 2.96126C11.0417 2.80972 11.0415 2.56437 10.8747 2.41308C10.7081 2.26191 10.438 2.2623 10.2717 2.41386L5.49998 6.76385L0.728235 2.41371C0.561947 2.26216 0.292083 2.26177 0.125364 2.41292C0.041791 2.48876 2.84842e-06 2.58812 2.84408e-06 2.68747C2.83975e-06 2.78658 0.0415115 2.88554 0.124505 2.96124L5.19813 7.58656C5.27801 7.65955 5.38672 7.7005 5.49998 7.7005C5.61325 7.7005 5.72183 7.65943 5.80186 7.58656Z" fill="black"/>
</g>
<defs>
<clipPath id="clip0_356_9">
<rect width="10" height="11" fill="white" transform="translate(11) rotate(90)"/>
</clipPath>
</defs>
</svg>
