<svg width="19" height="20" viewBox="0 0 19 20" fill="none" xmlns="http://www.w3.org/2000/svg">
<path d="M18.7901 5.7094C18.6122 5.40175 18.3485 5.22533 18.0668 5.22533H3.53576L3.2423 3.21812C3.18103 2.79941 2.97834 2.44784 2.69998 2.27754L0.652393 1.02529C0.416007 0.880615 0.141286 1.03345 0.0387523 1.36641C-0.0638923 1.69947 0.0445785 2.0866 0.280854 2.23106L2.32848 3.48337L4.58569 18.9214C4.67461 19.5294 5.05891 19.9707 5.49951 19.9707H16.6756C16.9333 19.9707 17.1421 19.6764 17.1421 19.3134C17.1421 18.9504 16.9333 18.6561 16.6756 18.6561H5.49955L5.22498 16.7782H16.762C17.2026 16.7782 17.5869 16.3369 17.6758 15.7289L18.9807 6.805C19.0375 6.41641 18.968 6.017 18.7901 5.7094ZM16.762 15.4637H5.03279L3.72798 6.53986L18.0668 6.53991L16.762 15.4637Z" fill="white"/>
</svg>
